<?xml version="1.0" encoding="UTF-8"?>
<svg id="Layer_1" data-name="Layer 1" xmlns="http://www.w3.org/2000/svg" xmlns:xlink="http://www.w3.org/1999/xlink" viewBox="0 0 1224.59 531.59">
  <defs>
    <style>
      .cls-1 {
        fill: none;
      }

      .cls-2 {
        fill: #f5c30b;
      }

      .cls-3 {
        fill: #efa695;
      }

      .cls-4 {
        fill: #fff;
      }

      .cls-5 {
        clip-path: url(#clippath);
      }

      .cls-6 {
        fill: #2e2c3f;
      }
    </style>
    <clipPath id="clippath">
      <rect class="cls-1" x="764" width="460.59" height="417.33"/>
    </clipPath>
  </defs>
  <g class="cls-5">
    <path class="cls-6" d="M764.1,205.43c0,.63,0,1.27.02,1.89.31,15.19,2.48,30.29,6.9,44.83,1.44,4.7,3.08,9.36,4.96,13.95,5.92,14.26,14.95,27.56,26.32,38.21,6.78,6.37,14.43,11.8,22.73,15.93,25.51,12.7,49.18,3.24,76.28,3.06,19.26-.11,38.64,1.08,57.47,5.43,18.82,4.35,36.8,11.91,52.54,23.21,18.08,12.99,26.86,31.2,41.93,46.27,4.78,4.78,11.94,9.54,21.64,12.92,4.91,2.12,10.1,3.76,15.45,4.7,5.38.98,10.93,1.29,16.69.8,26.86-2.3,51.89-18.41,69.49-38.81,18.79-21.8,31.98-46.93,39.6-73.48,4.9-16.99,7.49-34.51,7.88-52.16.76-36.85-8.22-74.06-26.75-107.11-53.45-95.33-170.68-164.69-281.11-139.73-1.03.23-2.04.48-3.06.74-.63.11-1.27.28-1.89.44-3.24.81-6.5,1.74-9.69,2.75-8.39,2.65-16.56,5.91-24.39,9.79-6.15,3.08-12.11,6.55-17.81,10.39-6.58,4.47-12.95,9.14-18.96,13.99-4.78,3.82-9.36,7.79-13.73,11.91-9.97,9.36-18.91,19.52-26.7,30.67-3.77,5.38-7.28,10.98-10.45,16.85-4.27,7.76-8.02,15.98-11.23,24.7-6.2,16.84-10.67,34.66-12.77,52.7-.96,8.34-1.42,16.78-1.34,25.16Z"/>
  </g>
  <path class="cls-6" d="M1041.9,390.23l.42-1.58,154.3,40.64-.42,1.58-154.3-40.64Z"/>
  <path class="cls-6" d="M835.26,479.53l.48-1.57,146.47,44.88-.48,1.56-146.47-44.87Z"/>
  <path class="cls-6" d="M852.22,499.47l.47-1.57,76.19,22.86-.47,1.57-76.19-22.86Z"/>
  <path class="cls-6" d="M823.03,89.6l-66.1,235.09,379.24,90.51,59.24-275.1c2.59-12.09-5.92-23.06-18.45-23.95l-334.38-41.38c-8.16-.59-16.59,5.82-19.55,14.82Z"/>
  <path class="cls-6" d="M817.91,87.45l-66.08,234.26,376.63,89.51,59.47-273.79c2.61-12.04-5.82-22.94-18.26-23.82l-332.27-40.94c-8.11-.58-16.53,5.82-19.49,14.79Z"/>
  <path class="cls-6" d="M1129.02,411.33l-1.13-.25,59.47-273.79c1.21-5.56.05-11.05-3.24-15.45-3.34-4.46-8.63-7.26-14.49-7.68l.08-1.16c6.2.43,11.8,3.41,15.33,8.14,3.51,4.66,4.73,10.48,3.44,16.38l-59.47,273.81Z"/>
  <path class="cls-2" d="M827.03,87.75l-62.48,222.88,351.14,82.61,57.6-259.1-346.26-46.39Z"/>
  <path class="cls-4" d="M751.83,321.69l-117.39,66.96,373.19,106.74,120.82-84.2-376.63-89.51Z"/>
  <path class="cls-6" d="M762.4,336.1l-40.54,26.88c-3.91,2.58-3.84,9.36.1,10.49l301.71,86.33c1.79.51,3.69.08,5.15-1.18l39.31-33.65c4.08-3.51,2.58-10.67-2.5-11.98l-299.83-77.58c-1.1-.28-2.31-.05-3.39.68Z"/>
  <path class="cls-6" d="M806.18,410.29l-8.55,5.8c-2.63,1.79-2.45,6.4.28,7.24l69.94,21.41c1.13.35,2.35-.02,3.26-.96l6.32-6.58c2.17-2.25,1.44-6.33-1.26-7.15l-67.59-20.21c-.78-.22-1.64-.07-2.4.45Z"/>
  <path class="cls-6" d="M1128.46,411.2l7.72,4.01-130.35,95.78-374.1-110.07,2.71-12.26,373.19,106.74,120.82-84.2Z"/>
  <path class="cls-6" d="M1007.44,496.04l-374.73-107.18,118.77-67.76.68,1.18-115.97,66.17,371.64,106.28-.38,1.31Z"/>
  <path class="cls-6" d="M840.4,340.5l-2.27,1.86c-2.59,2.14-2.1,6.64.81,7.33l140.56,33.95c5.94,1.44,12.22.71,17.92-2.1l6.14-3.01-163.15-38.03Z"/>
  <path class="cls-6" d="M1194.59,211.26l-48.83-6.95c-1.13-.17-1.89-1.18-1.67-2.28l9.35-47.49c.2-1.09,1.29-1.87,2.42-1.7l48.73,5.21c1.13.17,1.89,1.18,1.67,2.29l-9.24,49.23c-.22,1.11-1.29,1.87-2.42,1.7Z"/>
  <path class="cls-4" d="M1191.5,210.82l-76.81-10.92c-1.13-.17-1.89-1.17-1.67-2.28l9.34-47.49c.2-1.09,1.29-1.87,2.42-1.7l76.7,9.18c1.13.17,1.89,1.17,1.67,2.28l-9.24,49.23c-.22,1.09-1.29,1.85-2.42,1.7Z"/>
  <path class="cls-6" d="M1191.8,211.52c-.13,0-.27-.02-.4-.04l-76.81-10.92c-.74-.1-1.37-.49-1.8-1.07-.41-.58-.58-1.29-.45-2.01l9.35-47.51c.27-1.44,1.69-2.47,3.18-2.25l76.69,9.18c.76.1,1.39.5,1.82,1.09.42.58.58,1.29.45,2l-9.24,49.23c-.25,1.32-1.46,2.29-2.78,2.29ZM1124.49,149.07c-.71,0-1.32.49-1.46,1.17l-9.34,47.51c-.07.33.02.68.21.94.2.28.53.48.89.53l76.81,10.92c.78.1,1.52-.41,1.66-1.16l9.24-49.23c.07-.35-.02-.68-.2-.96-.2-.28-.53-.48-.9-.53l-76.69-9.18c-.08-.02-.15-.02-.23-.02Z"/>
  <path class="cls-2" d="M1137.94,192.86l-7.26-1.03,3.11-16.56,7.28,1.03-3.13,16.56Z"/>
  <path class="cls-6" d="M1151.73,194.83l-7.28-1.04,5.59-29.71,7.26,1.04-5.57,29.71Z"/>
  <path class="cls-2" d="M1165.51,196.78l-7.28-1.03,6.22-33.08,7.28,1.04-6.22,33.07Z"/>
  <path class="cls-6" d="M1179.29,198.75l-7.26-1.04,4.02-21.38,7.26,1.04-4.02,21.38Z"/>
  <path class="cls-6" d="M920.7,142.89l-71.03-9.89c-4.18-.58-7.13-4.47-6.53-8.65.59-4.19,4.46-7.13,8.65-6.54l71.03,9.89c4.19.58,7.13,4.47,6.54,8.66-.6,4.18-4.47,7.11-8.66,6.53ZM851.64,118.96c-3.54-.49-6.83,1.99-7.33,5.53-.49,3.54,1.98,6.83,5.53,7.33l71.03,9.9c3.54.49,6.83-1.99,7.33-5.53.49-3.54-1.98-6.83-5.53-7.33l-71.03-9.9Z"/>
  <path class="cls-6" d="M855.94,125.48c0,.6-.11,1.17-.34,1.73-.23.55-.56,1.04-.98,1.46s-.91.75-1.46.98-1.13.34-1.73.34-1.18-.11-1.73-.34-1.04-.56-1.46-.98-.75-.91-.98-1.46c-.23-.56-.34-1.13-.34-1.73s.11-1.18.34-1.73.56-1.04.98-1.46c.42-.43.91-.75,1.46-.98s1.13-.34,1.73-.34,1.18.11,1.73.34,1.04.55,1.46.98c.42.42.75.91.98,1.46s.34,1.13.34,1.73Z"/>
  <path class="cls-6" d="M861.04,148.84l-22.35-3.11c-1.32-.18-2.23-1.41-2.05-2.73s1.41-2.23,2.73-2.05l22.35,3.11c1.32.18,2.23,1.41,2.05,2.73-.2,1.32-1.42,2.23-2.73,2.05ZM839.3,141.31c-1.11-.15-2.15.63-2.3,1.74-.15,1.11.63,2.15,1.74,2.3l22.35,3.11c1.11.15,2.15-.63,2.3-1.73.15-1.11-.63-2.15-1.73-2.3l-22.35-3.11Z"/>
  <path class="cls-6" d="M840.66,143.36c0,.19-.04.37-.1.55-.07.17-.18.33-.31.46-.13.14-.29.24-.46.31-.18.07-.36.1-.55.1s-.37-.04-.54-.1c-.18-.07-.33-.18-.46-.31-.14-.13-.23-.29-.31-.46-.07-.18-.11-.36-.11-.55s.04-.37.11-.54c.07-.18.17-.33.31-.46s.29-.23.46-.31c.17-.07.35-.11.54-.11s.37.04.55.11c.17.07.33.17.46.31.14.14.24.29.31.46.07.17.1.35.1.54Z"/>
  <path class="cls-6" d="M1071.93,332.53l-22.35-3.11c-1.32-.18-2.23-1.41-2.05-2.73.18-1.33,1.4-2.23,2.73-2.05l22.34,3.11c1.33.18,2.23,1.41,2.05,2.73s-1.41,2.23-2.73,2.05ZM1050.2,325c-1.11-.15-2.15.63-2.3,1.73-.15,1.11.63,2.15,1.74,2.3l22.35,3.11c1.11.15,2.15-.63,2.3-1.74.15-1.11-.63-2.15-1.73-2.3l-22.35-3.11Z"/>
  <path class="cls-6" d="M1051.57,327.05c0,.19-.03.38-.1.55s-.18.33-.31.46-.29.23-.46.31c-.18.07-.35.11-.55.11s-.37-.04-.54-.11c-.18-.07-.33-.18-.46-.31-.13-.14-.23-.29-.31-.46s-.11-.35-.11-.55.04-.37.11-.54c.07-.18.18-.33.31-.46.14-.13.29-.23.46-.31.17-.07.35-.11.54-.11s.37.04.55.11c.17.07.33.18.46.31s.24.29.31.46c.07.17.1.35.1.54Z"/>
  <path class="cls-6" d="M742.52,23.29l24.68,34.06-61.01-8.62,36.33-25.44Z"/>
  <path class="cls-6" d="M717.86,49.6l37.96,5.38-1.44,7.1-1.42,7.3-3.82-.55.65-3.28-4.14-.59.53-2.65-4.14-.59-1.01,5.21-3.31-.46.99-5.11-3.11-.43-1.92,9.86-4.4-.63.96-4.9-3.22-.46-.36,1.93-3.66-.51,1.04-5.33-3.7-.51-2.32,11.88-4.57-.65,4.4-22Z"/>
  <path class="cls-6" d="M745.66,100.42l.84.11,6.16-31.48-.84-.11-6.16,31.48Z"/>
  <path class="cls-6" d="M733.83,111.07l.83.12,5.63-28.77,5.54-3.87,2.66-13.61-.83-.13-2.59,13.3-5.54,3.87-5.69,29.09Z"/>
  <path class="cls-6" d="M732.41,91.28l.83.11,2.36-12.09,6.19-4.32,1.11-5.69-.83-.12-1.04,5.36-6.19,4.32-2.43,12.43Z"/>
  <path class="cls-6" d="M737.54,72.6l.84.11,1.26-6.47-.83-.11-1.27,6.47Z"/>
  <path class="cls-6" d="M728.79,109.83l.82.11,2.05-10.55-4.04-5.54,4.57-23.41-.83-.11-4.63,23.73,4.04,5.56-1.98,10.2Z"/>
  <path class="cls-6" d="M727.3,101.45l.69-.49-3.56-4.88,3.74-19.13-.83-.11-3.8,19.45,3.76,5.16Z"/>
  <path class="cls-6" d="M740.69,105.57l.83.11,3.82-19.55-.83-.11-3.82,19.55Z"/>
  <path class="cls-6" d="M716.89,93.69l.83.12,2.27-11.63,2.68-1.87,2.78-14.24-.83-.11-2.71,13.91-2.68,1.87-2.33,11.96Z"/>
  <path class="cls-6" d="M714.95,107.24l.83.11,1.14-5.84,4.27-2.98,2.69-13.73-.84-.11-2.61,13.4-4.27,2.98-1.21,6.17Z"/>
  <path class="cls-6" d="M712.44,99.81l.82.11,2.78-14.19-1.97-2.7,2.25-11.49-.83-.14-2.32,11.86,1.97,2.68-2.71,13.86Z"/>
  <path class="cls-6" d="M708.16,105.09l.83.11,3.76-19.17-.84-.14-3.74,19.19Z"/>
  <path class="cls-6" d="M739.23,72.46c.08.16.12.34.13.52s-.03.36-.1.54c-.07.18-.17.33-.3.47-.14.14-.29.25-.46.33-.18.08-.36.13-.55.15-.19.01-.38-.01-.55-.07s-.34-.15-.47-.27c-.14-.12-.25-.26-.33-.43-.08-.16-.12-.34-.12-.52,0-.18.03-.36.09-.54.07-.18.17-.33.3-.47.13-.14.28-.25.46-.33.17-.08.35-.13.55-.15.19-.01.38.01.55.07.18.06.34.15.48.27.14.12.24.26.32.43Z"/>
  <path class="cls-6" d="M743.73,68.24c.07.17.11.34.12.52,0,.19-.03.36-.09.54-.07.17-.17.33-.3.47-.13.14-.28.25-.46.33-.17.08-.35.13-.55.14-.19.02-.38-.01-.55-.07-.18-.06-.34-.15-.48-.27-.14-.12-.24-.27-.32-.43-.08-.17-.12-.34-.13-.53,0-.18.03-.36.1-.54.07-.17.17-.33.3-.47.13-.14.29-.25.46-.33.18-.08.36-.13.55-.15.19-.01.38.01.55.07.18.06.34.15.47.27.14.12.25.27.33.43Z"/>
  <path class="cls-6" d="M746.38,84.57c.08.17.12.34.12.53,0,.18-.03.36-.09.54-.07.17-.17.33-.3.47-.13.14-.28.25-.46.33-.17.08-.35.13-.55.15-.19.01-.38-.01-.55-.07-.18-.06-.34-.15-.48-.27-.14-.12-.24-.27-.32-.43-.08-.17-.12-.34-.13-.52,0-.19.03-.36.1-.54.07-.17.17-.33.3-.47.14-.14.29-.25.46-.33.18-.08.36-.13.55-.14.19-.02.38.01.55.07s.34.15.47.27c.14.12.25.27.33.43Z"/>
  <path class="cls-6" d="M747.14,100.7c.08.17.12.34.13.53,0,.18-.03.36-.1.54-.07.17-.17.33-.3.47-.14.14-.29.25-.46.33-.17.08-.35.13-.55.14-.19.02-.38,0-.55-.07-.18-.06-.34-.15-.47-.27-.14-.12-.25-.27-.33-.43-.08-.17-.12-.34-.13-.53,0-.18.03-.36.1-.54.07-.17.17-.33.3-.47.14-.14.29-.25.46-.33.17-.08.35-.13.55-.14.19-.02.38,0,.55.07.18.06.34.15.48.27.14.12.24.27.32.43Z"/>
  <path class="cls-6" d="M742.17,106.05c.08.16.12.34.13.52s-.03.36-.09.54c-.07.18-.17.33-.3.47-.13.14-.29.25-.46.33-.18.08-.36.13-.55.15-.19.01-.38-.01-.56-.07s-.34-.15-.47-.27c-.14-.12-.25-.26-.32-.43-.08-.17-.12-.34-.13-.52,0-.19.03-.36.09-.54.07-.17.17-.33.3-.47s.28-.25.46-.33c.17-.08.36-.13.55-.14.19-.02.38.01.56.07.18.06.33.15.47.27.14.13.24.27.32.43Z"/>
  <path class="cls-6" d="M735.47,111.32c.08.17.12.34.13.52,0,.19-.03.36-.09.54-.07.18-.17.33-.3.47-.13.14-.28.25-.46.33-.17.08-.36.13-.55.14-.19.02-.38-.01-.56-.07-.18-.06-.33-.15-.47-.27-.14-.13-.24-.27-.32-.43-.08-.16-.12-.34-.13-.52s.03-.36.09-.54c.07-.18.17-.33.3-.47.13-.14.29-.24.46-.33.18-.08.36-.13.55-.15.19-.01.38.01.55.07s.34.15.47.27c.14.12.25.26.32.43Z"/>
  <path class="cls-6" d="M730.32,110.38c.07.16.11.34.12.52s-.03.36-.09.54c-.07.18-.17.33-.3.47-.13.14-.28.25-.46.33-.17.08-.35.13-.55.15-.19.01-.38-.01-.56-.07-.18-.06-.33-.15-.47-.27-.14-.12-.24-.26-.32-.43-.08-.16-.12-.34-.13-.52s.03-.36.09-.54c.07-.18.17-.33.3-.47.13-.14.29-.25.46-.33.18-.08.36-.13.55-.15.19-.01.38.01.55.07s.34.15.47.27c.14.12.25.26.33.43Z"/>
  <path class="cls-6" d="M729.29,101.23c.07.16.11.34.12.52s-.03.36-.09.54-.17.33-.3.47c-.13.14-.28.25-.46.33-.17.08-.35.13-.55.15-.19.01-.38-.01-.56-.07-.18-.06-.33-.15-.47-.27-.14-.12-.24-.26-.32-.43s-.12-.34-.13-.52c0-.19.03-.36.09-.54.07-.17.17-.33.3-.47s.29-.25.46-.33c.18-.08.36-.13.55-.14.19-.02.38.01.55.07s.34.15.47.27c.14.13.25.27.33.43Z"/>
  <path class="cls-6" d="M716.5,107.67c.08.16.11.34.12.52s-.03.36-.09.54c-.07.18-.17.33-.3.47-.13.14-.28.25-.46.33-.17.08-.35.13-.55.15-.19.01-.38-.01-.55-.07-.18-.06-.34-.15-.48-.27-.14-.12-.24-.26-.32-.43-.08-.16-.12-.34-.13-.52s.03-.36.1-.54c.07-.18.17-.33.3-.47.13-.14.29-.25.46-.33.18-.08.36-.13.55-.15.19-.01.38.01.55.07s.34.15.47.27c.14.12.25.26.33.43Z"/>
  <path class="cls-6" d="M713.89,100.17c.08.16.12.34.13.52s-.03.36-.1.54c-.07.18-.17.33-.3.47-.14.14-.29.25-.46.33-.18.08-.36.13-.55.15-.19.01-.38-.01-.55-.07s-.34-.15-.47-.27c-.14-.12-.25-.26-.33-.43-.08-.16-.12-.34-.13-.52,0-.18.03-.36.1-.54.07-.18.17-.33.3-.47.14-.14.29-.25.46-.33.17-.08.35-.13.55-.15.19-.01.38.01.55.07.18.06.34.15.48.27.14.12.24.26.32.43Z"/>
  <path class="cls-6" d="M718.42,93.86c.08.17.12.34.13.52,0,.19-.03.36-.1.54-.07.17-.17.33-.3.47-.14.14-.29.25-.46.33-.17.08-.35.13-.55.14-.19.02-.38-.01-.55-.07s-.34-.15-.47-.27c-.14-.12-.25-.27-.33-.43-.08-.17-.12-.34-.13-.53,0-.18.03-.36.1-.54s.17-.33.3-.47c.14-.14.29-.25.46-.33.17-.08.35-.13.55-.15.19-.01.38.01.55.07.18.06.34.15.48.27.14.12.24.27.32.43Z"/>
  <path class="cls-6" d="M709.71,105.65c.08.17.12.34.13.52,0,.19-.03.36-.09.54-.07.18-.17.33-.3.47s-.29.25-.46.33c-.18.08-.36.13-.55.14-.19.02-.38-.01-.56-.07s-.34-.15-.47-.27c-.14-.13-.25-.27-.32-.43-.08-.16-.12-.34-.13-.52s.03-.36.09-.54c.07-.18.17-.33.3-.47.13-.14.28-.25.46-.33.17-.08.36-.13.55-.15.19-.01.38.01.56.07.18.06.33.15.47.27s.24.26.32.43Z"/>
  <path class="cls-6" d="M713.62,85.68c.08.17.12.34.13.52,0,.19-.03.36-.1.54-.07.17-.17.33-.3.47s-.29.25-.46.33c-.18.08-.36.13-.55.14-.19.02-.38-.01-.55-.07s-.34-.15-.47-.27c-.14-.12-.25-.27-.33-.43-.07-.17-.11-.34-.12-.53s.03-.36.09-.54.17-.33.3-.47c.13-.14.28-.25.46-.33.17-.08.35-.13.55-.15.19-.01.38.01.55.07.18.06.34.15.48.27.14.12.24.27.32.43Z"/>
  <path class="cls-6" d="M724.62,84.12c.08.17.12.34.13.53,0,.18-.03.36-.1.54-.07.17-.17.33-.3.47-.13.14-.29.25-.46.33-.18.08-.36.13-.55.15-.19.01-.38-.01-.55-.07-.18-.06-.34-.15-.47-.27-.14-.12-.25-.27-.33-.43-.07-.17-.11-.34-.12-.53,0-.18.03-.36.09-.54.07-.17.17-.33.3-.47.13-.14.28-.25.46-.33.17-.08.35-.13.55-.14.19-.02.38.01.55.07.18.06.34.15.48.27.14.12.24.27.32.43Z"/>
  <path class="cls-6" d="M729.02,76.23c.08.17.12.34.13.52,0,.19-.03.36-.09.54-.07.17-.17.33-.3.47-.13.14-.28.25-.46.33-.17.08-.36.13-.55.14-.19.02-.38-.01-.56-.07-.18-.06-.33-.15-.47-.27-.14-.13-.24-.27-.32-.43-.08-.16-.12-.34-.13-.52s.03-.36.09-.54c.07-.18.17-.33.3-.47.13-.14.29-.25.46-.33.18-.08.36-.13.55-.15.19-.01.38.01.55.07.18.06.34.15.47.27.14.12.25.26.32.43Z"/>
  <path class="cls-6" d="M733.84,91.65c.08.17.12.34.13.53,0,.18-.03.36-.1.54-.07.17-.17.33-.3.47-.13.14-.29.25-.46.33-.18.08-.36.13-.55.14-.19.02-.38,0-.55-.07-.18-.06-.34-.15-.47-.27-.14-.12-.25-.27-.33-.43-.08-.17-.11-.34-.12-.53,0-.18.03-.36.09-.54.07-.17.17-.33.3-.47.13-.14.28-.25.46-.33.17-.08.35-.13.55-.14.19-.02.38,0,.55.07.18.06.34.15.48.27.14.12.24.27.32.43Z"/>
  <path class="cls-6" d="M1104.49,241.18l1.85-.28.42-1.7-1.47-1.16-3.67,1.41,1.67.55,1.21,1.19ZM1076.96,266.77c-.94,1.42-1.09,3.24-.38,4.81l1.67,3.72.08.99c.12,1.47.86,2.84,2.04,3.74l2.73,2.08,1.95,6.07c.59,1.82,1.92,3.31,3.66,4.08l.23,7.13-2.1,3.23c-.74,1.13.46,2.51,1.69,1.93,3.69-3.94,6.33-8.73,7.72-13.94l2.52-9.43.3-5.64,3.34-3.26,3.17-1.79,1.85-4.45,2.84-2.58-2.02-6.07.17-1.03c.26-1.67-.83-3.24-2.48-3.57l-2.78-1.85-8.95,4.27-7.01,6.75-9.79,4.12-.45.68ZM1125.07,249.6l.79-.13.18-.73-.65-.49-1.59.61.73.25.53.49ZM1122.85,249.3l-1.13.78s.53,2.61.58,2.66c.05.07.61.7,1.19.17.58-.55,1.7-.65,1.7-.65l.32-.69-.56-.99c-.4-.1-1.57-.28-1.57-.28l-.53-.99ZM1059.91,211.5l2.42.74,2.15,1.18,1.21-1.01,1.44-1.98c-.3-.18-1.29-1.32-1.29-1.32l-2.35.46-3.26-.02-.32,1.95ZM1066.95,206.42l6.75,5.74,2.2.05s.22.08.52.18c.93.33,1.95-.2,2.18-1.16.02-.05.02-.1.02-.12-.02-.16-.56-1.45-.56-1.45l.48-4.05-1.07-1.01-1.79-5.38,1.51-1.64.58-1.35,2.29.63.74,1.17,1.74-.58.08-1.49,1.07-1.26,3.59,1.16.8,1.47,1.29.15,2.79,2.32-2.58,1.32-1.56-.31s-3.06,3.9-3.06,4.15c0,.1-.14.49-.28.94-.32.88-.04,1.85.69,2.45l1.22-.03.86,1.52,3.63.41,1.04-.78,1.49-.1c.65-.03,1.13-.63,1.04-1.26l-.15-1.22-2.74-1.39,1.44-2.98,1.54,1.6.61,1.52,1.95.52,4.32,4.48s1.76.32,1.84.33c.06.02,5.04,2.14,5.04,2.14,0,0,.98,1.49.81,1.51s-1.67,1.7-2.1,1.77c-.43.05-2.29.64-2.29.64l-.91,2.22-1.57-.84s-3.82-7.09-3.82-7.18-1.54-.65-1.54-.65l-1.11.03c-1.24.04-2.18,1.13-2.05,2.35l-1.83-.61s-2.43-.33-2.5-.2c-.05.15-.71,1.98-.71,1.98l-2.53,5.77-.07.53c-.18,1.45.79,2.81,2.23,3.11l2.36-1.92,2.63,1.29-1.21,2.55.99,1.47,2.02-.21s7.3,4.46,7.81,4.4c.49-.06,4.02,4.22,4.02,4.22l2.07.78,1.34,1.77s1.67,2.33,1.76,2.2c.08-.15,2.52-2.63,2.52-2.63l3.67.35s1.9-.76,1.95-.68c.05.1.93,1.46.93,1.46l.45.51c1.31,1.49,1.47,3.66.43,5.34l-.15.25s-2.27,1.01-2.53.73c-.15-.17-1.62-.81-2.83-1.34-.81-.34-1.73.17-1.87,1.04l1.62,1.72-1.65,1.03-2.28-.28-.74,1.8c-.56,1.38.71,2.8,2.15,2.38l1.67-1.9,2.63.3s6.24-3.82,6.52-3.94,2.68-.21,2.73-.3c.05-.07,3.38-5.64,3.38-5.64l1.51-1.64,2.08,1.34c-2.78-17.75-12.59-32.92-26.3-42.84l-1.85-.93-1.82-.13-1.52-.43-1.95.05c-.74-.43-1.66-.48-2.43-.11l-.33.15s-1.29-.48-1.89.59l-1.93-.23s-.98-.98-.99-1.14c-.02-.17.02-2.96.02-2.96,0,0-.61-1.24-1.39-1.28-.79-.03-1.64.3-1.64.3l-1.31-.73-1.13.36-13.23-3.05-1.55,1.13s-4.39-.78-4.81-.59c-.43.17-2.33.81-2.33.81,0,0-1.53-2.09-1.85-2.05-.33.03-1.09.05-1.09.05l-7.09-.71c-.78.17-1.56.34-2.32.55l-.38.33-1.49.58s-2.27.46-2.59.4c-.65.22-1.29.43-1.92.67l-.17.46.68,1.47,1.85-.08,1.57,1.21,4.27,7.18s.05,1.52,0,1.64c-.07.11.99,2.4.99,2.4l2.25.65,1.79.04,4.01,2.4,2.4.3ZM1075.26,191.39c.13-.02,2.49.12,2.49.12l1.31.81.84-.17s1.08,1.46,1.09,1.51l-2.29-.76-.69-.46s-.86.17-.91.25c-.06.08-1.73-1.21-1.85-1.29Z"/>
  <path class="cls-6" d="M1103.7,81.61c.68.99,1.31,2.02,1.88,3.07.57,1.06,1.08,2.15,1.54,3.27s.84,2.26,1.18,3.43c.33,1.17.6,2.35.81,3.56.21,1.2.35,2.42.43,3.65.08,1.23.1,2.47.06,3.71-.05,1.24-.16,2.49-.33,3.74-.17,1.24-.41,2.49-.71,3.72-.3,1.23-.66,2.46-1.07,3.68-.42,1.21-.9,2.41-1.44,3.59s-1.13,2.34-1.78,3.48c-.65,1.14-1.36,2.24-2.11,3.32-.76,1.08-1.57,2.13-2.42,3.14-.86,1.02-1.76,1.99-2.71,2.93s-1.94,1.83-2.97,2.69-2.09,1.66-3.2,2.42-2.23,1.47-3.4,2.13c-1.16.66-2.35,1.26-3.57,1.81s-2.45,1.05-3.7,1.49c-1.26.44-2.52.82-3.8,1.15-1.28.32-2.56.58-3.86.79-1.29.2-2.58.34-3.88.43s-2.59.1-3.87.06c-1.29-.04-2.56-.14-3.82-.31-1.26-.16-2.51-.39-3.73-.67-1.23-.28-2.43-.63-3.61-1.03-1.18-.4-2.33-.86-3.45-1.38-1.13-.52-2.21-1.08-3.26-1.71-1.05-.62-2.06-1.3-3.04-2.02-.97-.73-1.9-1.51-2.79-2.32-.88-.82-1.72-1.69-2.51-2.6-.79-.91-1.52-1.86-2.2-2.85s-1.31-2.01-1.88-3.07c-.57-1.06-1.08-2.15-1.54-3.27s-.84-2.26-1.18-3.43c-.33-1.17-.6-2.35-.81-3.56-.21-1.2-.35-2.42-.43-3.65s-.1-2.47-.05-3.71c.04-1.24.15-2.49.32-3.74.17-1.24.41-2.48.71-3.72.3-1.23.66-2.46,1.07-3.68.42-1.21.9-2.41,1.44-3.59s1.13-2.34,1.78-3.47,1.36-2.24,2.11-3.33c.76-1.08,1.57-2.13,2.42-3.14.86-1.02,1.76-1.99,2.71-2.93s1.94-1.83,2.97-2.69c1.03-.85,2.1-1.66,3.2-2.42,1.1-.76,2.23-1.47,3.4-2.13,1.16-.66,2.35-1.26,3.57-1.81s2.45-1.05,3.7-1.49c1.26-.44,2.52-.82,3.8-1.14,1.28-.32,2.56-.59,3.86-.79,1.29-.2,2.59-.34,3.88-.43,1.3-.08,2.59-.1,3.87-.06,1.29.04,2.56.15,3.82.31,1.26.16,2.51.39,3.73.67,1.23.29,2.43.63,3.61,1.03s2.33.86,3.45,1.38c1.13.52,2.21,1.08,3.26,1.71,1.05.62,2.06,1.3,3.04,2.03.97.72,1.9,1.5,2.79,2.32.88.82,1.72,1.69,2.51,2.6.79.91,1.52,1.86,2.2,2.85Z"/>
  <path class="cls-4" d="M1098.61,76.02c.68.99,1.31,2.01,1.88,3.07.57,1.06,1.08,2.15,1.54,3.27s.85,2.26,1.18,3.43c.33,1.17.6,2.35.81,3.56.21,1.2.35,2.42.44,3.65.08,1.23.1,2.47.05,3.71s-.16,2.49-.33,3.74c-.17,1.24-.41,2.48-.7,3.72-.3,1.23-.66,2.46-1.08,3.68-.42,1.21-.9,2.41-1.44,3.59-.54,1.18-1.13,2.34-1.78,3.47-.65,1.14-1.35,2.24-2.11,3.33-.76,1.08-1.56,2.13-2.42,3.14-.85,1.02-1.76,1.99-2.71,2.93s-1.94,1.83-2.96,2.69c-1.03.85-2.1,1.66-3.2,2.42-1.1.76-2.23,1.47-3.4,2.13-1.17.66-2.35,1.26-3.57,1.81s-2.45,1.05-3.7,1.49c-1.25.44-2.52.82-3.8,1.14s-2.57.59-3.86.79c-1.3.2-2.59.34-3.89.43-1.29.08-2.58.1-3.87.06-1.28-.04-2.56-.14-3.82-.31-1.26-.16-2.51-.39-3.73-.67-1.22-.28-2.43-.63-3.61-1.03-1.18-.4-2.33-.86-3.45-1.38s-2.21-1.08-3.26-1.71c-1.05-.62-2.06-1.3-3.04-2.02-.97-.73-1.9-1.51-2.78-2.33-.89-.82-1.72-1.69-2.51-2.6-.79-.91-1.52-1.86-2.2-2.85s-1.31-2.01-1.88-3.07c-.57-1.06-1.08-2.15-1.53-3.27-.46-1.12-.85-2.26-1.18-3.43-.33-1.17-.6-2.35-.81-3.56-.21-1.2-.35-2.42-.44-3.65-.08-1.23-.1-2.47-.05-3.71s.16-2.49.33-3.74c.17-1.24.41-2.48.7-3.72.3-1.23.66-2.46,1.08-3.68.42-1.21.9-2.41,1.43-3.59.54-1.18,1.14-2.34,1.79-3.47.65-1.14,1.35-2.24,2.11-3.33.76-1.08,1.56-2.13,2.42-3.14.85-1.02,1.76-1.99,2.71-2.93.95-.94,1.94-1.83,2.96-2.69,1.03-.85,2.1-1.66,3.2-2.42,1.1-.76,2.23-1.47,3.4-2.13,1.17-.66,2.35-1.26,3.57-1.81s2.45-1.05,3.7-1.49c1.25-.44,2.52-.82,3.8-1.14s2.57-.59,3.86-.79,2.59-.34,3.89-.43c1.29-.08,2.58-.1,3.87-.06,1.28.04,2.56.14,3.82.31,1.26.16,2.51.39,3.73.67,1.22.29,2.43.63,3.6,1.03,1.18.4,2.33.86,3.45,1.38s2.21,1.08,3.26,1.71c1.05.62,2.06,1.3,3.04,2.02.97.73,1.9,1.51,2.78,2.33.89.82,1.72,1.69,2.51,2.6.79.91,1.52,1.86,2.2,2.85Z"/>
  <path class="cls-6" d="M1061,137.97c-2.08,0-4.17-.17-6.26-.48-10.37-1.63-19.07-7.11-24.49-15.47-5.48-8.42-6.97-18.71-4.2-29,5.66-21.07,27.71-35.46,49.15-32.13,10.37,1.63,19.07,7.11,24.5,15.47,5.47,8.42,6.96,18.71,4.2,29-5.13,19.01-23.59,32.6-42.89,32.6ZM1026.69,93.21l.66.18c-2.67,9.9-1.24,19.8,4.02,27.89,5.21,8.03,13.58,13.3,23.57,14.85,20.78,3.24,42.14-10.72,47.63-31.13,2.67-9.89,1.24-19.8-4.02-27.89-5.21-8.02-13.58-13.3-23.57-14.85-20.76-3.24-42.14,10.72-47.63,31.13l-.66-.18Z"/>
  <path class="cls-2" d="M1071.14,76.52c-12.7-2.04-25.82,6.48-29.21,18.99-3.41,12.51,4.17,24.32,16.87,26.35,12.71,2.04,25.82-6.48,29.21-18.99s-4.17-24.32-16.87-26.35ZM1070.43,79.1c1.16,1.9,3.76,6.8,4.1,13.2-5.28.61-10.22-.2-14.71-2.42,3.64-5.74,8.55-9.41,10.6-10.79ZM1071.17,106.43c-4.83-2.3-10.09-3.13-15.7-2.43.07-4.65,1.35-8.7,3.21-12.14,2.45,1.21,5.03,2.07,7.72,2.49,2.61.42,5.33.45,8.14.12-.11,3.66-1.04,7.74-3.38,11.96ZM1070,108.38c-2.32,3.56-5.69,7.19-10.47,10.75-2.49-4.7-3.7-9.05-3.98-13,5.16-.61,10.01.13,14.46,2.25ZM1076.68,94.14c2.97-.53,5.99-1.47,8.96-2.78,1.09,3.42,1.24,7.26.18,11.18-1.06,3.92-3.21,7.38-5.99,10.19-2.05-2.11-4.32-3.9-6.78-5.31,2.57-4.68,3.54-9.22,3.63-13.29ZM1084.9,89.39c-2.74,1.2-5.51,2.08-8.26,2.58-.3-5.57-2.15-10.11-3.49-12.69,5.46,1.6,9.59,5.34,11.74,10.11ZM1067.83,78.42c-2.55,1.95-6.59,5.51-9.76,10.49-2.17-1.29-4.23-2.93-6.16-4.92,4.45-3.66,10.13-5.76,15.92-5.57ZM1050.2,85.55c2.08,2.15,4.33,3.94,6.7,5.32-2.08,3.81-3.57,8.32-3.64,13.47-2.89.55-5.89,1.49-8.95,2.83-1.14-3.46-1.31-7.34-.21-11.32,1.07-3.97,3.26-7.47,6.1-10.3ZM1045.08,109.13c2.81-1.24,5.58-2.12,8.24-2.63.25,3.89,1.34,8.12,3.59,12.65-5.49-1.57-9.64-5.28-11.83-10.02ZM1061.94,119.96c4.45-3.49,7.68-7.06,9.94-10.57,2.25,1.29,4.36,2.96,6.25,4.91-4.52,3.72-10.3,5.89-16.19,5.66Z"/>
  <path class="cls-6" d="M917.13,27.82c.35.71.66,1.43.93,2.17s.49,1.49.69,2.27c.19.77.33,1.55.44,2.33.1.79.17,1.59.19,2.39.02.8,0,1.6-.07,2.41s-.17,1.61-.32,2.42c-.15.8-.34,1.6-.57,2.39s-.5,1.57-.81,2.35c-.31.77-.66,1.53-1.05,2.28-.39.75-.81,1.48-1.27,2.19-.46.72-.96,1.41-1.49,2.09-.53.67-1.09,1.32-1.68,1.95s-1.22,1.23-1.87,1.81c-.65.57-1.33,1.12-2.04,1.64-.7.52-1.43,1.01-2.18,1.46s-1.52.88-2.3,1.26c-.79.39-1.59.74-2.41,1.06-.82.32-1.65.59-2.49.84-.84.24-1.69.45-2.54.61-.85.17-1.71.29-2.57.38s-1.72.14-2.58.15c-.86,0-1.71-.02-2.56-.09-.85-.07-1.69-.18-2.52-.33-.83-.15-1.65-.34-2.45-.56s-1.59-.49-2.35-.79c-.77-.3-1.52-.64-2.24-1.01-.72-.38-1.43-.78-2.1-1.22-.68-.44-1.33-.91-1.95-1.42-.62-.51-1.21-1.04-1.78-1.6-.56-.56-1.09-1.15-1.58-1.77s-.95-1.26-1.38-1.92c-.42-.67-.81-1.35-1.16-2.06-.35-.7-.66-1.43-.92-2.17-.27-.74-.5-1.49-.69-2.27-.19-.77-.33-1.55-.44-2.33-.1-.79-.17-1.58-.19-2.39s0-1.6.07-2.41c.06-.81.17-1.61.32-2.41.15-.8.33-1.6.56-2.4.23-.79.51-1.57.81-2.35.31-.77.66-1.53,1.05-2.28.39-.74.81-1.48,1.28-2.19.46-.71.95-1.41,1.48-2.08.53-.68,1.09-1.33,1.69-1.96.59-.63,1.21-1.23,1.87-1.8.65-.58,1.33-1.13,2.03-1.64.7-.52,1.43-1.01,2.18-1.46.74-.45,1.52-.88,2.3-1.26.79-.39,1.59-.74,2.41-1.06s1.65-.59,2.48-.84c.84-.24,1.69-.44,2.54-.61s1.71-.29,2.57-.38,1.72-.14,2.58-.15c.85,0,1.71.03,2.56.09.85.07,1.69.18,2.52.33.83.15,1.65.34,2.45.56.8.23,1.59.49,2.35.79.77.3,1.52.64,2.24,1.01.73.37,1.43.78,2.11,1.22s1.33.91,1.95,1.42c.63.51,1.22,1.04,1.78,1.6.56.56,1.09,1.16,1.59,1.77.49.62.95,1.26,1.38,1.93.42.66.81,1.35,1.16,2.06Z"/>
  <path class="cls-4" d="M914.66,24.77c.34.7.66,1.43.92,2.17.27.74.5,1.49.69,2.27.19.77.33,1.55.44,2.33.1.79.17,1.58.19,2.39s0,1.6-.07,2.41c-.06.81-.17,1.61-.32,2.41-.15.81-.33,1.6-.57,2.4-.23.79-.5,1.57-.81,2.35-.31.77-.66,1.53-1.05,2.28-.39.74-.81,1.48-1.28,2.19-.46.71-.95,1.41-1.48,2.08-.53.68-1.09,1.33-1.69,1.96-.59.63-1.21,1.23-1.87,1.81-.65.57-1.33,1.12-2.03,1.64-.7.52-1.43,1-2.18,1.46-.74.45-1.52.88-2.3,1.26-.79.39-1.59.74-2.41,1.06s-1.65.59-2.48.84c-.84.24-1.69.44-2.54.61s-1.71.29-2.57.38-1.72.14-2.58.15c-.85,0-1.71-.03-2.56-.09-.85-.07-1.69-.18-2.52-.33-.83-.15-1.65-.34-2.45-.56-.8-.23-1.59-.49-2.35-.79-.77-.3-1.52-.64-2.24-1.01-.72-.37-1.43-.78-2.1-1.22-.68-.44-1.33-.91-1.95-1.42-.62-.51-1.21-1.04-1.78-1.6-.56-.56-1.09-1.16-1.58-1.77-.49-.62-.95-1.26-1.38-1.93-.42-.66-.81-1.35-1.16-2.06-.35-.7-.66-1.43-.93-2.17-.27-.74-.5-1.49-.69-2.27-.19-.77-.33-1.55-.44-2.33-.1-.79-.17-1.58-.19-2.39s0-1.6.07-2.41.17-1.61.32-2.41c.15-.81.34-1.6.57-2.4s.5-1.57.81-2.35c.31-.77.66-1.53,1.05-2.28.39-.75.81-1.48,1.27-2.19.46-.71.96-1.41,1.48-2.08.53-.68,1.09-1.33,1.69-1.96.59-.63,1.22-1.23,1.87-1.81.65-.57,1.33-1.12,2.04-1.64.7-.52,1.43-1,2.18-1.46.75-.45,1.52-.88,2.3-1.26.79-.39,1.59-.74,2.41-1.06s1.65-.59,2.49-.84c.84-.24,1.68-.44,2.54-.61s1.71-.29,2.57-.38,1.72-.14,2.58-.15c.86,0,1.71.03,2.56.09.85.07,1.69.18,2.52.33.83.15,1.65.34,2.45.56.8.23,1.59.49,2.35.79.77.3,1.52.64,2.24,1.01.72.37,1.43.78,2.1,1.22.68.44,1.33.91,1.95,1.42.62.51,1.21,1.04,1.78,1.6s1.09,1.15,1.58,1.77.95,1.26,1.38,1.93c.42.66.81,1.35,1.16,2.06Z"/>
  <path class="cls-6" d="M888.35,61.88c-2.71,0-5.43-.4-8.07-1.21-6.64-2.07-11.81-6.5-14.56-12.49-2.78-6.04-2.76-12.92.03-19.39,5.72-13.23,21.53-20.55,35.2-16.28,6.64,2.05,11.81,6.48,14.56,12.49,2.78,6.04,2.77,12.92-.03,19.39-4.61,10.67-15.8,17.48-27.13,17.48ZM867.01,29.34c-2.65,6.1-2.66,12.59-.05,18.28,2.58,5.64,7.46,9.81,13.73,11.74,13.03,4.05,28.08-2.91,33.55-15.52,2.65-6.1,2.66-12.59.05-18.28-2.6-5.64-7.46-9.81-13.73-11.74-13.04-4.05-28.09,2.91-33.55,15.52Z"/>
  <path class="cls-2" d="M878.8,33.88c-2.84,6.58.36,13.65,7.18,15.74,6.8,2.12,14.64-1.51,17.48-8.1,2.84-6.58-.36-13.63-7.18-15.75l-5.16,11.91-12.33-3.8Z"/>
  <path class="cls-6" d="M877.78,31.64l12.34,3.84,5.16-11.91c-6.82-2.14-14.66,1.49-17.5,8.07Z"/>
  <path class="cls-6" d="M1158.45,322.85c.5.7.96,1.42,1.38,2.17s.8,1.53,1.14,2.32c.34.8.64,1.61.89,2.44.25.83.46,1.68.62,2.54.17.86.28,1.73.35,2.6.07.88.1,1.77.08,2.66-.02.89-.08,1.78-.19,2.68-.11.89-.26,1.78-.46,2.67-.2.89-.44,1.77-.72,2.64-.29.88-.61,1.73-.98,2.59-.38.85-.79,1.69-1.23,2.51-.45.82-.94,1.62-1.47,2.4-.53.78-1.09,1.54-1.69,2.28s-1.23,1.44-1.9,2.13-1.36,1.34-2.09,1.96c-.73.62-1.48,1.21-2.26,1.77-.78.56-1.58,1.08-2.41,1.56-.82.48-1.67.93-2.53,1.34-.86.41-1.74.78-2.63,1.1s-1.79.62-2.7.86-1.83.45-2.75.61-1.84.28-2.77.35c-.92.07-1.84.1-2.77.09-.92-.01-1.83-.07-2.73-.17-.91-.1-1.8-.24-2.68-.43s-1.74-.42-2.59-.69c-.84-.27-1.67-.58-2.48-.94s-1.59-.75-2.35-1.18c-.76-.43-1.49-.91-2.19-1.41-.7-.51-1.38-1.05-2.02-1.63-.64-.58-1.24-1.19-1.82-1.83s-1.11-1.31-1.61-2.01-.96-1.42-1.38-2.17c-.42-.76-.8-1.53-1.14-2.32-.34-.8-.64-1.61-.89-2.44-.25-.83-.46-1.68-.63-2.54-.16-.86-.28-1.73-.35-2.61-.07-.88-.1-1.76-.08-2.65.02-.89.08-1.78.19-2.68.11-.89.26-1.78.46-2.67.2-.89.44-1.77.72-2.64.29-.88.61-1.74.98-2.59s.78-1.69,1.23-2.51c.45-.82.94-1.62,1.47-2.4.53-.79,1.09-1.54,1.69-2.28s1.23-1.45,1.9-2.13c.67-.68,1.36-1.34,2.09-1.96.73-.62,1.48-1.21,2.26-1.77.78-.56,1.58-1.08,2.41-1.56.82-.48,1.67-.93,2.53-1.34.86-.41,1.74-.78,2.63-1.1.89-.33,1.79-.62,2.7-.86.91-.24,1.82-.45,2.75-.61.92-.16,1.84-.28,2.77-.35.92-.07,1.84-.1,2.77-.09.92.01,1.83.07,2.73.17.9.1,1.8.24,2.68.43s1.74.42,2.59.69c.85.27,1.68.58,2.48.94s1.59.75,2.35,1.18c.76.43,1.49.91,2.19,1.41.7.51,1.38,1.05,2.02,1.63.65.57,1.25,1.18,1.82,1.83.57.64,1.11,1.31,1.61,2.01Z"/>
  <path class="cls-4" d="M1156.54,317.4c.5.7.96,1.42,1.38,2.17.42.75.8,1.53,1.14,2.32.33.8.63,1.61.88,2.44.26.83.46,1.68.63,2.54.16.86.28,1.73.35,2.6.07.88.1,1.77.08,2.66-.02.89-.08,1.78-.19,2.68-.11.89-.26,1.78-.46,2.67-.2.89-.44,1.77-.72,2.64s-.61,1.73-.98,2.59c-.37.85-.78,1.68-1.23,2.51-.45.82-.94,1.62-1.47,2.4-.53.78-1.09,1.54-1.7,2.28-.6.73-1.23,1.44-1.9,2.13s-1.36,1.33-2.09,1.96c-.73.62-1.48,1.21-2.26,1.77-.78.56-1.58,1.08-2.4,1.56-.83.48-1.67.93-2.53,1.34-.86.41-1.74.78-2.63,1.11s-1.79.62-2.7.86c-.91.24-1.83.45-2.75.61-.93.16-1.85.28-2.78.35-.92.07-1.84.1-2.77.09-.92-.02-1.83-.07-2.73-.17-.9-.1-1.8-.24-2.68-.43s-1.74-.42-2.59-.69-1.68-.58-2.48-.94c-.81-.36-1.59-.75-2.35-1.18-.76-.44-1.49-.91-2.2-1.41-.7-.51-1.38-1.05-2.02-1.63-.65-.58-1.25-1.19-1.82-1.83s-1.11-1.31-1.61-2.01-.96-1.43-1.38-2.18-.8-1.52-1.14-2.32c-.34-.79-.64-1.6-.89-2.44-.25-.83-.46-1.67-.62-2.53-.17-.86-.28-1.73-.35-2.61s-.1-1.76-.08-2.65c.02-.89.08-1.79.19-2.68.11-.9.26-1.79.46-2.67.2-.89.44-1.77.73-2.64.28-.88.61-1.74.98-2.59.37-.85.78-1.69,1.23-2.51.45-.82.94-1.63,1.47-2.41.53-.78,1.09-1.54,1.69-2.28.6-.73,1.23-1.44,1.9-2.13s1.36-1.33,2.09-1.95c.73-.63,1.48-1.21,2.26-1.77.78-.55,1.58-1.07,2.41-1.56.82-.49,1.67-.93,2.53-1.34.86-.41,1.74-.78,2.63-1.11.89-.33,1.79-.61,2.7-.86.91-.25,1.83-.45,2.75-.61.92-.16,1.84-.28,2.77-.35s1.85-.1,2.77-.09c.92.01,1.83.07,2.73.17.91.1,1.8.24,2.68.43s1.74.42,2.59.69c.84.28,1.67.59,2.48.94s1.59.75,2.35,1.18c.76.43,1.49.9,2.19,1.41.7.51,1.38,1.05,2.02,1.63.64.58,1.24,1.19,1.82,1.83.57.65,1.11,1.31,1.6,2.02Z"/>
  <path class="cls-6" d="M1129.9,362.39c-1.34,0-2.68-.08-4.02-.28-7.49-1.05-13.83-4.9-17.83-10.85-4.04-6.01-5.24-13.4-3.38-20.83,3.82-15.22,19.5-25.85,34.95-23.69,7.49,1.04,13.81,4.9,17.83,10.85,4.04,6.01,5.24,13.4,3.38,20.82-3.47,13.9-16.88,23.97-30.94,23.97ZM1135.6,307.81c-13.46,0-26.27,9.64-29.61,22.94-1.77,7.05-.65,14.06,3.18,19.73,3.79,5.63,9.79,9.27,16.89,10.26,14.81,2.07,29.8-8.1,33.45-22.68,1.77-7.05.65-14.06-3.17-19.73-3.79-5.63-9.8-9.27-16.89-10.26-1.28-.18-2.56-.26-3.84-.26Z"/>
  <path class="cls-6" d="M1140.52,324.28c.27.38.49.78.67,1.2.18.43.32.87.41,1.33.09.46.13.93.12,1.41-.01.48-.07.96-.18,1.43-.1.48-.26.95-.45,1.4-.2.46-.44.9-.72,1.32-.29.42-.6.81-.96,1.18s-.74.7-1.17.99c-.42.3-.85.56-1.32.78-.46.22-.94.39-1.43.53-.49.13-.98.22-1.48.26-.49.04-.99.03-1.47-.02-.48-.06-.95-.16-1.41-.3-.45-.15-.89-.34-1.29-.57-.41-.23-.79-.51-1.13-.82-.34-.31-.65-.65-.92-1.03-.27-.38-.49-.78-.67-1.21-.18-.42-.32-.87-.41-1.33-.08-.46-.13-.93-.11-1.41s.07-.95.17-1.43c.1-.47.26-.94.46-1.4s.44-.9.72-1.31c.28-.42.6-.81.96-1.18.36-.37.75-.7,1.17-1s.86-.56,1.32-.78c.46-.22.94-.4,1.43-.53.48-.14.98-.22,1.47-.26.5-.04.99-.03,1.47.03.48.05.96.16,1.41.3.46.15.89.33,1.3.57.41.23.78.51,1.13.81.35.31.65.66.92,1.03Z"/>
  <path class="cls-6" d="M1117.47,345.53l24.12,3.36,1.54-6.12c.49-2.01-.74-3.85-2.78-4.15l-16.76-2.33c-2.04-.28-4.1,1.1-4.6,3.11l-1.52,6.14Z"/>
  <path class="cls-6" d="M858.81,217.92c-11.85,58.76,26.2,113.72,84.34,123.24,57.58,9.41,114.06-29.25,126.75-86.8,12.82-58.13-23.64-114.22-82.07-124.84-59.01-10.76-117.07,29.05-129.03,88.4Z"/>
  <path class="cls-4" d="M849.28,210.3c-11.84,58.76,26.2,113.72,84.35,123.23,57.58,9.42,114.06-29.24,126.74-86.79,12.82-58.13-23.64-114.22-82.06-124.84-59.01-10.76-117.07,29.05-129.03,88.4Z"/>
  <path class="cls-6" d="M951.06,335.64c-5.86,0-11.71-.48-17.57-1.42-28.24-4.61-52.64-19.95-68.69-43.18-16.22-23.49-21.98-52.21-16.21-80.88l.66.14-.66-.14c12.07-59.86,70.3-99.78,129.82-88.95,28.12,5.11,52.19,20.84,67.79,44.3,15.86,23.85,21.13,52.73,14.81,81.35-6.17,28.01-22.8,52.49-46.81,68.93-19.01,13.02-40.93,19.83-63.14,19.83ZM958.82,120.8c-51.58,0-98.28,37.01-108.88,89.63-5.71,28.3-.02,56.66,15.99,79.83,15.85,22.91,39.92,38.05,67.79,42.59,5.69.93,11.38,1.38,17.02,1.38,50.77,0,97.67-36.46,108.95-87.66,6.23-28.26,1.04-56.78-14.61-80.31-15.4-23.14-39.15-38.68-66.91-43.72-6.48-1.17-12.95-1.73-19.35-1.73Z"/>
  <path class="cls-4" d="M862.38,208.94c10.22-50.42,59.7-84.31,109.82-75.27l1.16-5.51c-53.17-9.64-105.67,26.34-116.49,79.83l5.51.94Z"/>
  <path class="cls-6" d="M947.79,320.66l.2-2.24c1.24.05,2.46.08,3.69.08.68.02,1.39,0,2.08-.02l-.05,2.25c-.71.02-1.46.04-2.14.02-1.26,0-2.53-.02-3.79-.08ZM958.89,318.23c1.92-.15,3.85-.36,5.76-.63l.21,2.23c-1.95.28-3.93.49-5.9.65l-.07-2.25ZM936.7,319.52l.46-2.21c1.87.3,3.79.56,5.7.74l-.33,2.25c-1.95-.2-3.92-.46-5.84-.78ZM969.73,316.74c1.89-.38,3.79-.81,5.68-1.31l.49,2.17c-1.92.51-3.89.96-5.82,1.34l-.35-2.2ZM925.89,317.09l.72-2.17c1.82.53,3.69,1.01,5.56,1.43l-.59,2.2c-1.92-.43-3.84-.91-5.69-1.46ZM980.38,313.96c1.83-.59,3.69-1.26,5.49-1.97l.76,2.08c-1.85.73-3.76,1.41-5.64,2.02l-.61-2.14ZM915.46,313.37l.99-2.08c1.74.74,3.53,1.44,5.33,2.08l-.86,2.14c-1.85-.67-3.69-1.38-5.46-2.14ZM990.65,309.96c1.77-.81,3.54-1.69,5.24-2.6l1.01,1.97c-1.76.94-3.56,1.83-5.38,2.66l-.88-2.03ZM905.62,308.39l1.22-1.95c1.62.96,3.31,1.87,5.01,2.71l-1.11,2.02c-1.73-.86-3.47-1.8-5.13-2.78ZM1000.41,304.78c1.67-1.01,3.32-2.08,4.91-3.19l1.24,1.82c-1.64,1.13-3.32,2.23-5.04,3.28l-1.11-1.91ZM896.49,302.25l1.45-1.8c1.51,1.16,3.06,2.29,4.63,3.31l-1.34,1.89c-1.6-1.06-3.21-2.22-4.74-3.4ZM1009.52,298.5c1.54-1.21,3.06-2.45,4.52-3.74l1.45,1.65c-1.48,1.31-3.04,2.6-4.63,3.84l-1.34-1.75ZM888.2,295.01l1.67-1.64c1.34,1.32,2.74,2.63,4.19,3.87l-1.56,1.72c-1.49-1.26-2.94-2.59-4.3-3.95ZM1017.86,291.23c1.39-1.37,2.76-2.78,4.07-4.23l1.66,1.46c-1.34,1.47-2.73,2.94-4.17,4.33l-1.55-1.56ZM880.85,286.79l1.85-1.44c1.17,1.48,2.4,2.96,3.67,4.36l-1.76,1.54c-1.3-1.44-2.56-2.94-3.77-4.46ZM1025.3,283.05c1.22-1.51,2.42-3.08,3.54-4.67l1.83,1.24c-1.16,1.62-2.38,3.22-3.64,4.78l-1.73-1.35ZM874.59,277.69l2-1.21c.97,1.64,2.02,3.24,3.09,4.8l-1.92,1.34c-1.09-1.6-2.17-3.26-3.17-4.93ZM1031.76,274.08c1.04-1.64,2.03-3.34,2.97-5.03l1.98,1.01c-.96,1.73-1.98,3.47-3.04,5.16l-1.92-1.14ZM869.49,267.86l2.14-.97c.76,1.74,1.6,3.47,2.48,5.16l-2.07,1.09c-.91-1.72-1.75-3.49-2.55-5.28ZM1037.09,264.44c.84-1.74,1.64-3.54,2.37-5.34l2.1.76c-.74,1.85-1.57,3.69-2.42,5.47l-2.05-.89ZM865.64,257.42l2.23-.71c.55,1.83,1.18,3.67,1.84,5.46l-2.19.86c-.69-1.84-1.32-3.72-1.89-5.61ZM1041.27,254.27c.63-1.82,1.21-3.69,1.72-5.56l2.18.5c-.53,1.92-1.13,3.84-1.75,5.69l-2.15-.63ZM863.1,246.52l2.3-.44c.31,1.9.71,3.8,1.14,5.67l-2.27.58c-.46-1.89-.86-3.85-1.18-5.81ZM1044.21,243.69c.42-1.89.76-3.8,1.06-5.71l2.25.23c-.3,1.95-.66,3.92-1.07,5.85l-2.23-.38ZM861.93,235.34l2.33-.17c.08,1.94.23,3.89.43,5.79l-2.31.31c-.22-1.93-.36-3.93-.45-5.94ZM1045.88,232.88c.11-1.22.21-2.45.28-3.67.03-.7.07-1.41.08-2.1l2.28-.04c-.02.71-.05,1.44-.08,2.15-.07,1.26-.17,2.52-.28,3.76l-2.28-.1ZM861.9,228.11c.05-1.35.14-2.71.23-4.07l2.33.11c-.1,1.32-.18,2.65-.23,3.97-.02.63-.03,1.26-.05,1.87l-2.33.04c.02-.63.03-1.28.05-1.92ZM1045.93,216.23l2.27-.32c.18,1.95.3,3.94.34,5.89l-2.28.17c-.05-1.89-.17-3.82-.33-5.74ZM862.72,218.75c.28-1.99.61-3.99,1.01-5.96l2.28.4c-.4,1.92-.72,3.88-.99,5.81l-2.3-.24ZM1044.28,205.52l2.23-.58c.41,1.92.78,3.87,1.06,5.79l-2.25.45c-.28-1.87-.63-3.77-1.04-5.66ZM1041.31,195.11l2.15-.84c.65,1.84,1.24,3.72,1.77,5.61l-2.2.71c-.5-1.85-1.09-3.69-1.72-5.47ZM1037.11,185.17l2.05-1.11c.88,1.74,1.69,3.54,2.45,5.33l-2.11.97c-.73-1.73-1.54-3.49-2.38-5.19ZM1031.7,175.84l1.92-1.34c1.08,1.62,2.12,3.29,3.08,4.98l-2,1.22c-.93-1.64-1.94-3.28-2.99-4.86ZM1025.19,167.27l1.75-1.56c1.28,1.47,2.52,3.01,3.67,4.57l-1.85,1.44c-1.13-1.52-2.33-3.01-3.57-4.45ZM1017.64,159.56l1.57-1.76c1.44,1.31,2.86,2.66,4.22,4.07l-1.67,1.66c-1.32-1.38-2.71-2.71-4.12-3.97ZM1009.17,152.84l1.36-1.94c1.6,1.11,3.19,2.29,4.71,3.51l-1.47,1.83c-1.51-1.17-3.04-2.31-4.6-3.41ZM999.89,147.26l1.13-2.07c1.72.89,3.44,1.86,5.13,2.89l-1.26,2.01c-1.64-1.01-3.33-1.97-5-2.83ZM989.93,142.82l.86-2.18c1.85.7,3.7,1.44,5.49,2.25l-1.01,2.14c-1.73-.8-3.54-1.52-5.34-2.2ZM979.45,139.66l.59-2.27c1.94.44,3.87.97,5.76,1.55l-.74,2.23c-1.83-.56-3.72-1.08-5.6-1.52Z"/>
  <path class="cls-6" d="M875.25,214.78c-9.07,44.47,19.6,86.2,63.69,93.52,43.75,7.24,86.68-22.15,96.24-65.91,9.63-44.1-18.15-86.5-62.38-94.44-44.56-8.01-88.4,22.04-97.55,66.83Z"/>
  <path class="cls-6" d="M882.15,215.97c-8.32,40.66,17.88,78.89,58.23,85.59,40.06,6.67,79.37-20.27,88.1-60.34,8.78-40.36-16.66-79.12-57.12-86.37-40.76-7.28-80.84,20.18-89.21,61.13Z"/>
  <path class="cls-2" d="M950.17,294.11c-3.69,0-7.41-.31-11.11-.98-16.59-2.96-30.89-12.31-40.21-26.32-9.9-14.84-13.12-33-9.1-51.13,8.07-36.36,43.27-60.82,78.49-54.54,16.59,2.96,30.89,12.31,40.21,26.32,9.9,14.84,13.12,33,9.1,51.13-7.21,32.52-36.14,55.52-67.38,55.52ZM957.1,162.57c-30.13,0-58.03,22.23-65.01,53.65-3.89,17.48-.78,34.98,8.75,49.28,8.96,13.45,22.7,22.43,38.63,25.28,33.96,6.07,67.92-17.58,75.71-52.69,3.89-17.48.78-34.98-8.75-49.28-8.97-13.45-22.7-22.43-38.63-25.28-3.57-.65-7.15-.96-10.7-.96Z"/>
  <path class="cls-2" d="M942.95,293.48c-1.31,0-2.61-.11-3.9-.35-6.55-1.17-12.32-5.26-16.71-11.86-9.18-13.78-11.61-37.12-6.32-60.91,8.07-36.36,31.48-62.93,52.22-59.22,6.55,1.18,12.32,5.26,16.7,11.86,9.18,13.78,11.61,37.12,6.32,60.91-7.56,34.08-28.62,59.57-48.32,59.57ZM964.24,163.2c-18.54,0-38.56,24.71-45.89,57.7-5.14,23.18-2.84,45.81,5.99,59.06,4.02,6.02,9.25,9.78,15.14,10.82,19.47,3.47,41.67-22.27,49.46-57.39,5.15-23.17,2.84-45.8-5.99-59.05-4.02-6.02-9.24-9.78-15.14-10.82-1.19-.2-2.38-.32-3.57-.32Z"/>
  <path class="cls-2" d="M938.07,291.7l28.77-129.61,2.36.52-28.77,129.61-2.36-.52Z"/>
  <path class="cls-2" d="M907.24,184.89l.42-2.38,108.22,19.32-.42,2.38-108.22-19.32Z"/>
  <path class="cls-2" d="M892.43,251.77l.43-2.38,108.23,19.32-.42,2.38-108.24-19.32Z"/>
  <path class="cls-2" d="M890.71,217.18l.42-2.38,125.44,22.39-.43,2.38-125.43-22.39Z"/>
  <path class="cls-4" d="M904.28,212.1l5.97-27.16,6.78,1.17c1.77.32,3.19.73,4.29,1.24,1.09.52,1.9,1.21,2.45,2.04.53.84.83,1.8.88,2.9.05,1.09-.1,2.43-.44,4l-2.15,9.8c-.35,1.59-.78,2.88-1.31,3.9-.53,1.01-1.21,1.84-2.05,2.45-.84.61-1.89.99-3.11,1.13-1.22.14-2.71.04-4.43-.27l-6.86-1.19ZM911.15,208.95l.91.17c.45.08.84.11,1.18.11s.63-.06.86-.18c.25-.11.45-.24.61-.4.16-.15.31-.38.44-.69.14-.32.23-.61.32-.9.08-.28.16-.68.28-1.17l2.56-11.68c.15-.69.25-1.22.27-1.6.03-.38-.02-.74-.15-1.07-.13-.35-.36-.59-.73-.78-.36-.18-.88-.33-1.54-.45l-.89-.15-4.12,18.79Z"/>
  <path class="cls-4" d="M923.77,215.47l5.97-27.16,5.95,1.03-5.97,27.16-5.95-1.03Z"/>
  <path class="cls-4" d="M940.66,218.83c-1.38-.23-2.48-.66-3.36-1.27-.88-.61-1.49-1.39-1.87-2.35-.38-.94-.56-2-.58-3.16-.02-1.16.15-2.46.46-3.94l1.98-9.03c.27-1.21.58-2.27.96-3.18.38-.92.84-1.75,1.41-2.48s1.21-1.31,1.94-1.72c.73-.42,1.59-.7,2.58-.83.99-.14,2.09-.08,3.29.11,1.18.2,2.19.52,3.03.91.84.41,1.52.89,2.02,1.44s.88,1.19,1.11,1.94c.23.74.35,1.52.33,2.33-.02.82-.13,1.72-.34,2.71l-.38,1.72-5.82-1.01.48-2.18c.1-.42.17-.76.2-1.03s.07-.56.07-.9-.05-.59-.15-.79-.27-.38-.48-.55c-.23-.17-.53-.28-.9-.35-.38-.06-.71-.05-1.01.05-.3.1-.55.23-.73.41s-.35.43-.52.76c-.15.33-.28.63-.34.9-.08.28-.17.61-.25,1.03l-2.73,12.44c-.23,1.08-.27,1.97-.08,2.65.18.68.7,1.09,1.54,1.24,1.55.26,2.61-.8,3.14-3.21l.68-3.04-2.43-.43.8-3.59,7.82,1.36-3.11,14.13-3.95-.69.17-2.33c-1.22,1.65-2.86,2.3-4.96,1.93Z"/>
  <path class="cls-4" d="M953.09,220.58l5.97-27.16,5.94,1.03-5.97,27.16-5.94-1.03Z"/>
  <path class="cls-4" d="M965.52,222.73l5-22.73-4.14-.73.97-4.43,14.21,2.46-.97,4.44-4.1-.71-4.99,22.73-5.97-1.03Z"/>
  <path class="cls-4" d="M976.44,224.64l11.08-26.29,6.73,1.18-.91,28.06-5.49-.96.35-5.92-3.94-.68-2.18,5.61-5.64-.99ZM985.57,216.52l2.88.49.86-10.77-3.74,10.28Z"/>
  <path class="cls-4" d="M996.04,228.05l5.97-27.17,5.95,1.03-5.08,23.11,6.17,1.08-.9,4.07-12.13-2.11Z"/>
  <path class="cls-4" d="M881.2,230.49l2.93-13.32-2.43-.42.58-2.59,8.32,1.44-.58,2.6-2.4-.42-2.93,13.32-3.49-.61Z"/>
  <path class="cls-4" d="M888.45,231.75l3.51-15.91,4.3.74c.66.11,1.24.26,1.76.43.49.17.94.38,1.35.66.42.28.73.59.94.96.23.36.36.81.42,1.32.05.53.02,1.11-.14,1.77-.23,1.04-.54,1.85-.97,2.45-.41.58-1.03.99-1.84,1.21l.48,8.09-3.61-.63-.17-7.43-.97-.17-1.57,7.13-3.49-.63ZM893.94,223.21l.89.15c.71.11,1.26.03,1.62-.3.38-.32.65-.86.81-1.61.17-.72.15-1.3-.03-1.7-.18-.4-.6-.66-1.24-.78l-1.07-.18-.97,4.42Z"/>
  <path class="cls-4" d="M899.35,233.65l6.48-15.4,3.94.68-.53,16.42-3.21-.56.2-3.47-2.3-.4-1.28,3.29-3.31-.56ZM904.69,228.89l1.69.3.51-6.3-2.2,6.01Z"/>
  <path class="cls-4" d="M910.83,235.64l3.51-15.91,2.45.43,1.57,8.2,1.69-7.64,2.9.49-3.51,15.91-2.36-.41-1.44-8.8-1.82,8.24-2.98-.52Z"/>
  <path class="cls-4" d="M925.86,238.48c-1.51-.27-2.53-.86-3.07-1.79-.56-.93-.68-2.29-.35-4.05l3.09.06c-.21.99-.25,1.76-.11,2.23.13.48.41.78.86.86.59.1.97-.23,1.14-.99.1-.43.1-.84.03-1.22-.06-.38-.2-.73-.36-1.03-.16-.3-.41-.65-.72-1.06l-1.13-1.45c-.27-.35-.5-.66-.66-.96-.17-.28-.32-.61-.46-.98-.14-.38-.22-.78-.23-1.21-.02-.43.04-.89.15-1.37.3-1.32.91-2.28,1.85-2.86.94-.58,2.1-.76,3.47-.53.46.08.88.21,1.24.38s.66.36.88.58.41.46.56.74.25.56.31.84c.07.28.1.58.1.91.02.33,0,.63-.03.89s-.07.55-.11.86l-3.11-.13c.05-.27.1-.5.11-.68.02-.18.05-.36.07-.58.02-.2.02-.36,0-.49-.02-.13-.05-.25-.1-.36-.05-.11-.14-.21-.23-.28-.1-.06-.23-.1-.38-.13-.31-.05-.56.05-.78.27-.21.23-.36.49-.43.81-.06.3-.08.58-.06.84.02.27.1.52.21.78.11.26.25.46.33.59.08.13.25.35.45.63l1.08,1.42c.3.4.54.78.74,1.13.2.34.38.74.53,1.17.15.43.25.9.27,1.38s-.03.99-.15,1.52c-.24,1.16-.84,2.04-1.77,2.66-.9.61-1.97.81-3.21.6Z"/>
  <path class="cls-4" d="M931.74,239.28l3.51-15.91,6.83,1.19-.53,2.39-3.35-.58-.88,4,2.88.5-.55,2.45-2.88-.5-1.55,7.06-3.47-.59Z"/>
  <path class="cls-4" d="M944.68,241.76c-.88-.15-1.6-.4-2.17-.74-.56-.35-.98-.78-1.24-1.31-.26-.53-.41-1.13-.43-1.77-.02-.66.05-1.41.24-2.27l1.29-5.88c.18-.86.43-1.59.73-2.18s.68-1.09,1.14-1.49,1.03-.66,1.7-.78,1.44-.11,2.32.05c1.7.3,2.83.94,3.38,1.95s.63,2.39.24,4.1l-1.29,5.87c-.38,1.72-1.04,2.98-1.97,3.72-.93.78-2.25,1.01-3.95.71ZM944.71,239.06c.13.1.3.17.51.21.22.03.4.03.56-.02.17-.05.32-.11.42-.21.11-.1.2-.23.3-.4.08-.16.15-.33.2-.48.05-.15.1-.34.15-.56l1.67-7.63c.05-.21.08-.4.1-.56.02-.17.03-.33.02-.51s-.05-.33-.1-.46c-.05-.11-.15-.23-.3-.33-.13-.1-.31-.16-.51-.2-.2-.03-.4-.03-.56.02-.17.05-.3.12-.41.22-.1.1-.2.23-.28.4-.08.18-.15.33-.18.48-.04.15-.08.33-.14.55l-1.67,7.63c-.05.23-.08.41-.11.56-.02.15-.03.31-.03.51s.03.35.1.46c.05.12.15.23.28.33Z"/>
  <path class="cls-4" d="M951.59,242.73l3.51-15.91,4.3.74c.66.12,1.24.27,1.76.43.49.17.94.38,1.35.66.42.27.73.59.94.96.23.36.36.81.42,1.32.05.53.02,1.11-.14,1.77-.23,1.04-.54,1.85-.97,2.45-.41.58-1.03.99-1.83,1.21l.48,8.09-3.61-.63-.17-7.43-.97-.16-1.57,7.11-3.49-.61ZM957.08,234.18l.89.15c.71.12,1.26.04,1.62-.3.38-.31.65-.86.81-1.6.17-.73.15-1.31-.03-1.7s-.6-.66-1.24-.78l-1.08-.18-.97,4.42Z"/>
  <path class="cls-4" d="M963.2,244.75l3.76-15.86,3.74.64-.3,9.61,3.94-8.98,3.61.63-3.24,15.96-2.49-.43,2.07-10.6-4.19,10.24-2.18-.38.4-10.97-2.58,10.59-2.52-.45Z"/>
  <path class="cls-4" d="M976.2,247l6.48-15.4,3.94.68-.53,16.42-3.23-.56.2-3.47-2.3-.4-1.28,3.29-3.29-.56ZM981.55,242.26l1.69.3.52-6.3-2.2,6.01Z"/>
  <path class="cls-4" d="M988.74,249.19l2.93-13.32-2.43-.43.58-2.59,8.32,1.44-.58,2.6-2.4-.42-2.93,13.32-3.49-.59Z"/>
  <path class="cls-4" d="M996.02,250.44l3.51-15.91,3.49.61-3.51,15.92-3.49-.61Z"/>
  <path class="cls-4" d="M1006.33,252.48c-.88-.15-1.59-.4-2.17-.74-.58-.35-.98-.78-1.24-1.31-.27-.53-.42-1.13-.43-1.77-.02-.66.07-1.41.25-2.27l1.29-5.88c.18-.86.43-1.59.73-2.18s.68-1.09,1.14-1.49,1.03-.66,1.7-.78c.68-.11,1.44-.11,2.32.05,1.7.3,2.83.95,3.38,1.95.55,1.01.63,2.39.25,4.1l-1.29,5.87c-.38,1.72-1.04,2.96-1.97,3.72-.93.78-2.25,1.01-3.95.71ZM1006.36,249.78c.14.1.3.17.52.21.21.04.4.04.56-.02.16-.05.31-.11.41-.21s.2-.23.3-.4c.08-.17.15-.33.2-.48.05-.15.1-.34.15-.56l1.67-7.63c.05-.21.08-.4.1-.55.02-.16.03-.33.02-.51s-.05-.33-.1-.46c-.07-.11-.15-.23-.3-.33-.14-.1-.32-.17-.52-.2-.21-.03-.4-.03-.56.02-.16.05-.3.11-.41.21-.1.1-.2.23-.28.4-.08.18-.15.33-.18.48-.05.15-.08.33-.13.55l-1.67,7.63c-.05.23-.08.42-.11.56-.02.15-.04.32-.04.52s.04.34.1.46c.05.1.15.21.28.31Z"/>
  <path class="cls-4" d="M1013.24,253.44l3.51-15.92,2.45.43,1.57,8.2,1.69-7.64,2.89.49-3.51,15.92-2.36-.42-1.44-8.8-1.82,8.23-2.98-.51Z"/>
  <path class="cls-2" d="M566.22,279.64s-18.97,11.97-24.2,61.45c-5.23,49.48-16.03,62.02-17.77,77.7-1.73,15.68-13.23,74.57,6.62,82.23,19.85,7.66,55.12-23.72,55.12-23.72l12.14-104.84-31.91-92.82Z"/>
  <path class="cls-3" d="M643.34,250.11s8.55-16.59,11.66-34.22-6.99-86.84,27.23-88.67c34.22-1.82,61.19,16.08,65.59,34.74s-2.84,40.18-3.11,42.27-11.43,52.44-17.64,55.74c-12.65,6.73-26.84-1.16-26.84-1.16l-4.23,21.06-52.66-29.76Z"/>
  <path class="cls-6" d="M750.44,168.69s-8.12,20.96-22.6,20.51c-14.47-.45-10.32,7.96-13.55,18.06-3.22,10.11-6.58,22.3-18.24,29.38s-37.71,4.7-46.05-7.36c-8.34-12.06-15.99-42.7-5.82-66.96s37.3-43.82,37.3-43.82c0,0,11.15-14.21,22.17-5.13,11.03,9.08,13.78,10.31,23.76,10.7s22.99,5.84,28.3,15.98c11.41,21.73-5.26,28.64-5.26,28.64Z"/>
  <path class="cls-6" d="M685.63,122.97s-4.33-25.76-16.09-27.06-13.67,5.74-13.67,5.74c0,0-7.61-27.49-19.32-16.95-11.71,10.54-11.56,14.42-11.56,14.42,0,0-14.66-1.7-16.99,12.18-2.33,13.88,6.77,22.56,8.2,29.59,3.82,18.63,29.46-1.76,37.1,12.52l32.32-30.44Z"/>
  <path class="cls-6" d="M738.05,161.69c-.02-.13-2.23-12.55-14.51-16.21-2.61-.78-5.18-1.42-7.66-2.05-9.61-2.42-17.92-4.5-21.09-12.89l1.37-.53c2.91,7.68,10.49,9.58,20.08,11.99,2.5.63,5.08,1.27,7.72,2.07,13.17,3.94,15.52,17.25,15.54,17.39l-1.46.23Z"/>
  <path class="cls-6" d="M667.84,231.83c-.14-.1-13.15-10.01-13.48-29.55-.2-11.05,1.7-17.07,3.21-21.92,1.11-3.56,2.01-6.37,1.49-9.93l1.34-.2c.54,3.85-.36,6.8-1.54,10.52-1.49,4.75-3.34,10.67-3.16,21.49.33,18.84,12.8,28.39,12.93,28.48l-.79,1.09Z"/>
  <path class="cls-6" d="M727.23,171.03c-.02-.1-1.54-10.51-10.41-13.58l.48-1.39c9.73,3.38,11.32,14.31,11.38,14.77l-1.45.2Z"/>
  <path class="cls-6" d="M651.46,151.65l-.33-1.44c30.72-7.21,32.47-33.96,32.49-34.22l1.47.08c-.02.28-1.85,28.12-33.63,35.58Z"/>
  <path class="cls-3" d="M723.85,198.75s-2.83-12.08-11.3-8.45c-8.47,3.62-6.57,20.91-2.07,31.11l13.36-22.66Z"/>
  <path class="cls-6" d="M719.82,200.73s-1.42-5.63-6.09-3.63c-4.66,2.01-.31,13.8,2.17,19.42l3.92-15.8Z"/>
  <path class="cls-2" d="M750.64,513.94c.3-3.47.56-125.64,9.63-144.89,31.66-67.26-44.88-85.82-44.88-85.82-15.78-25.23-59.75-34.57-68.95-36.94-9.2-2.39-16.18,7.06-18.58,8.78-2.38,1.69-38.79,4.32-59.9,21.36-21.13,17.04-3.71,82.71-10.54,154.93-.02.2-.79,72.73-.81,72.95-.55,8.87,20.55,23.23,48.64,26.85,24.1,3.11,55.11-11.81,82.06-13.17,27.79-1.41,50.69,2.7,63.32-4.05Z"/>
  <path class="cls-6" d="M702.96,274.28c-47.63-16.33-73.07-18.15-73.32-18.17l.08-1.35c.25.02,25.84,1.83,73.68,18.23l-.44,1.29Z"/>
  <path class="cls-6" d="M556.5,494.22l-1.36-.03c.59-23.43,1.59-62.74,1.6-62.9,2.3-24.28,4.29-50.24,3.24-75.38l1.35-.05c1.04,25.23-.94,51.23-3.24,75.58-.02.41-.83,31.91-1.6,62.78Z"/>
  <path class="cls-6" d="M813.05,256.84l48.34,8.32c2.55.44,4.05,3.09,3.14,5.51l-38.69,101.52c-.74,1.97-2.86,3.04-4.9,2.52l-49.28-13.1c-2.38-.63-3.67-3.21-2.74-5.51l39.64-96.76c.71-1.79,2.59-2.83,4.49-2.5Z"/>
  <path class="cls-4" d="M775.93,354.91l37.02-90.8,44.45,8.29-37.95,93.48-43.53-10.97Z"/>
  <path class="cls-3" d="M843.57,365.92s4.45-10.16,4.77-12.7,8.69-10.45,10.16-19.69c2.55-15.88-1.9-36.51-3.49-37.15-1.59-.63-10.47,27.63-10.47,27.63,0,0-10.16-8.89-13.33-6.98-3.18,1.9-1.54,9.41.05,16.08s-13,16.47-11.48,22.65c1.54,6.3,23.8,10.17,23.8,10.17Z"/>
  <path class="cls-2" d="M747.89,299.26s30.48,15.23,34.7,40.64c4.23,25.4,7.2,47,7.2,47l31.33-36.82s22.43,1.27,30.06,21.58c0,0-30.58,119.92-68.27,116.53-60.78-5.46-62.55-96.21-62.55-96.21l27.53-92.72Z"/>
  <path class="cls-6" d="M750.31,473.63c-.27-.38-26.85-38.28-35.67-72.29l1.32-.34c8.75,33.78,35.19,71.47,35.45,71.84l-1.1.8Z"/>
  <path class="cls-6" d="M791.55,426.67l-1.34-.2c2.81-18.71-1.01-39.26-1.06-39.45l1.34-.25c.04.2,3.89,20.96,1.06,39.9Z"/>
  <path class="cls-2" d="M988.48,3.45l36.38,50.19-89.89-12.7,53.52-37.48Z"/>
  <path class="cls-2" d="M1024.85,53.64l-36.38-50.19-14.16,9.54,50.54,40.65Z"/>
  <path class="cls-2" d="M952.15,42.24l55.95,7.91-2.12,10.47-2.1,10.74-5.61-.8.94-4.84-6.09-.86.76-3.92-6.08-.86-1.49,7.69-4.86-.69,1.47-7.53-4.6-.65-2.83,14.53-6.48-.93,1.41-7.21-4.73-.68-.56,2.84-5.38-.76,1.54-7.84-5.46-.77-3.42,17.52-6.72-.96,6.47-32.41Z"/>
  <path class="cls-2" d="M993.13,117.11l1.22.18,9.07-46.4-1.22-.18-9.07,46.4Z"/>
  <path class="cls-2" d="M975.69,132.81l1.21.17,8.29-42.39,8.19-5.72,3.92-20.07-1.22-.17-3.82,19.57-8.19,5.72-8.37,42.88Z"/>
  <path class="cls-2" d="M973.59,103.61l1.22.18,3.47-17.82,9.14-6.36,1.64-8.39-1.22-.16-1.54,7.89-9.14,6.36-3.57,18.3Z"/>
  <path class="cls-2" d="M981.17,76.1l1.21.18,1.87-9.53-1.22-.17-1.85,9.51Z"/>
  <path class="cls-2" d="M968.25,130.96l1.22.18,3.03-15.53-5.96-8.19,6.75-34.47-1.22-.17-6.83,34.97,5.96,8.17-2.94,15.04Z"/>
  <path class="cls-2" d="M966.05,118.62l1.03-.73-5.23-7.18,5.51-28.19-1.22-.17-5.59,28.67,5.51,7.59Z"/>
  <path class="cls-2" d="M985.8,124.69l1.22.17,5.63-28.8-1.22-.18-5.63,28.81Z"/>
  <path class="cls-2" d="M950.73,107.17l1.22.18,3.34-17.12,3.94-2.77,4.1-20.97-1.21-.18-4.02,20.49-3.94,2.77-3.44,17.6Z"/>
  <path class="cls-2" d="M947.89,127.14l1.22.18,1.67-8.6,6.3-4.39,3.95-20.23-1.22-.17-3.85,19.72-6.3,4.4-1.77,9.08Z"/>
  <path class="cls-2" d="M944.16,116.2l1.22.17,4.09-20.91-2.88-3.95,3.32-16.97-1.22-.16-3.41,17.45,2.88,3.95-4.01,20.43Z"/>
  <path class="cls-2" d="M937.86,123.99l1.22.17,5.53-28.27-1.22-.17-5.53,28.27Z"/>
  <path class="cls-2" d="M983.67,75.92c.11.24.17.49.18.77.01.27-.04.54-.14.79s-.25.49-.44.69c-.2.2-.42.37-.68.49-.26.12-.53.19-.81.21s-.56-.02-.82-.1c-.27-.08-.5-.22-.7-.4s-.36-.39-.47-.63c-.11-.24-.18-.5-.18-.77-.01-.27.04-.53.14-.79.1-.26.25-.48.44-.69.2-.2.42-.37.68-.49.26-.12.53-.19.81-.21.28-.02.56.02.82.1.27.09.5.22.7.4s.36.39.48.63Z"/>
  <path class="cls-2" d="M990.3,69.7c.11.24.17.49.18.77,0,.27-.04.54-.15.79-.1.26-.25.49-.44.69s-.42.37-.68.49c-.26.12-.53.19-.81.21s-.55-.02-.82-.1c-.26-.08-.49-.22-.7-.4-.21-.18-.36-.39-.48-.63-.11-.24-.18-.5-.18-.77s.04-.53.14-.79c.1-.26.25-.48.45-.69.19-.2.42-.36.68-.49.26-.12.53-.19.81-.21.28-.02.55.02.82.1.26.09.49.22.7.4s.36.39.48.63Z"/>
  <path class="cls-2" d="M994.19,93.75c.11.24.17.5.18.77,0,.27-.04.54-.15.79-.1.26-.25.49-.44.69-.19.21-.42.37-.68.49-.26.13-.53.19-.81.21s-.55-.01-.82-.1c-.26-.08-.49-.21-.7-.39s-.36-.39-.48-.63c-.11-.24-.17-.5-.18-.77,0-.27.04-.54.15-.79.1-.26.25-.49.44-.69.19-.21.42-.37.68-.49.26-.12.53-.19.81-.21s.55.01.82.1c.26.08.49.21.7.39s.36.39.48.63Z"/>
  <path class="cls-2" d="M995.31,117.51c.11.24.18.5.18.77,0,.27-.04.54-.14.79-.1.26-.25.49-.45.69-.19.21-.42.37-.68.49-.26.13-.53.19-.81.21-.28.02-.55-.01-.82-.1-.26-.08-.49-.21-.7-.39s-.36-.39-.48-.63c-.11-.24-.17-.5-.18-.77,0-.27.04-.54.15-.79.1-.26.25-.49.44-.69.19-.21.42-.37.68-.49.26-.13.53-.19.81-.21s.55.01.82.1c.26.08.49.21.7.39.21.18.36.39.48.63Z"/>
  <path class="cls-2" d="M988,125.4c.11.24.17.5.18.77.01.27-.04.53-.14.79-.1.26-.25.48-.44.69-.2.2-.42.36-.68.49-.26.12-.53.19-.81.21-.28.02-.56-.01-.82-.09-.27-.09-.5-.22-.7-.4s-.36-.39-.47-.63c-.11-.24-.18-.49-.18-.77-.01-.27.04-.54.14-.79.1-.26.25-.49.44-.69.2-.21.42-.37.68-.49.26-.13.53-.19.81-.21s.56.02.82.1c.27.08.5.21.7.39s.36.39.48.63Z"/>
  <path class="cls-2" d="M978.12,133.15c.11.24.17.5.18.77,0,.27-.04.53-.15.79-.1.26-.25.48-.44.69-.19.2-.42.36-.68.49-.26.12-.53.19-.81.21-.28.02-.55-.02-.82-.1-.26-.09-.49-.22-.7-.4s-.36-.39-.48-.63c-.11-.24-.17-.49-.18-.77,0-.27.04-.54.15-.79.1-.26.25-.49.44-.69s.42-.37.68-.49c.26-.12.53-.19.81-.21s.55.02.82.1c.26.08.49.22.7.4s.36.39.48.63Z"/>
  <path class="cls-2" d="M970.51,131.77c.11.24.18.49.18.77s-.04.54-.14.79c-.1.26-.25.49-.45.69-.19.2-.42.37-.68.49-.26.13-.53.19-.81.21-.28.02-.55-.02-.82-.1-.26-.08-.49-.21-.7-.39s-.36-.39-.48-.63c-.11-.24-.17-.5-.18-.77,0-.27.04-.53.15-.79.1-.26.25-.48.44-.69.19-.2.42-.36.68-.49.26-.12.53-.19.81-.21.28-.02.55.01.82.09.26.09.49.22.7.4.21.18.36.39.48.63Z"/>
  <path class="cls-2" d="M969.01,118.3c.11.24.17.49.18.77,0,.27-.04.54-.15.79-.1.26-.25.49-.44.69-.19.21-.42.37-.68.49-.26.13-.53.19-.81.21s-.55-.01-.82-.1c-.26-.08-.49-.21-.7-.39-.21-.18-.36-.39-.48-.63-.11-.24-.18-.5-.18-.77s.04-.53.14-.79c.1-.26.25-.49.45-.7.19-.2.42-.36.68-.49.26-.12.53-.19.81-.21.28-.02.55.01.82.09.26.09.49.22.7.4s.36.39.48.63Z"/>
  <path class="cls-2" d="M950.18,127.79c.11.24.18.5.18.77s-.04.53-.14.79c-.1.26-.25.48-.45.69-.19.2-.42.36-.68.49-.26.12-.53.19-.81.21-.28.02-.55-.02-.82-.1-.26-.09-.49-.22-.7-.4s-.36-.39-.48-.63c-.11-.24-.17-.49-.18-.77,0-.27.04-.54.15-.79.1-.26.25-.49.44-.69s.42-.37.68-.49c.26-.12.53-.19.81-.21s.55.02.82.1c.26.08.49.22.7.4.21.18.36.39.48.63Z"/>
  <path class="cls-2" d="M946.33,116.74c.11.24.17.5.18.77.01.27-.04.54-.14.79-.1.26-.25.49-.44.69-.2.21-.42.37-.68.49-.26.13-.53.19-.81.21s-.56-.01-.82-.1c-.27-.08-.49-.21-.7-.39-.2-.18-.36-.39-.47-.63-.11-.24-.18-.5-.18-.77,0-.27.04-.54.14-.79.1-.26.25-.49.45-.69.19-.21.42-.37.68-.49.26-.12.53-.19.81-.21s.56.01.82.1c.27.08.5.21.7.39s.36.39.48.63Z"/>
  <path class="cls-2" d="M952.99,107.44c.11.24.18.5.18.77s-.04.53-.15.79c-.1.26-.25.48-.44.69-.19.2-.42.36-.68.49-.26.12-.53.19-.81.21-.28.02-.55-.01-.82-.09-.26-.09-.49-.22-.7-.4s-.36-.39-.48-.63c-.11-.24-.17-.49-.18-.77,0-.27.04-.54.15-.79.1-.26.25-.49.44-.69.19-.21.42-.37.68-.49.26-.13.53-.19.81-.21s.55.02.82.1c.26.08.49.21.7.39.21.18.36.39.48.63Z"/>
  <path class="cls-2" d="M940.17,124.81c.11.24.18.5.18.77s-.04.53-.14.79c-.1.26-.25.49-.45.69-.19.2-.42.37-.68.49-.26.12-.53.19-.81.21-.29.02-.56-.02-.82-.1-.27-.08-.5-.22-.7-.4s-.36-.39-.48-.63c-.11-.24-.17-.5-.18-.77,0-.27.04-.53.15-.79.1-.26.25-.49.44-.69.2-.2.42-.37.68-.49.26-.12.53-.19.81-.21.28-.02.55.02.82.1.27.09.49.22.7.4.2.18.36.39.47.63Z"/>
  <path class="cls-2" d="M945.93,95.39c.11.24.18.49.18.77s-.04.54-.14.79c-.1.26-.25.49-.45.69-.19.2-.42.37-.68.49-.26.12-.53.19-.81.21s-.55-.02-.82-.1c-.26-.08-.49-.22-.7-.4s-.36-.39-.48-.63c-.11-.24-.17-.5-.18-.77,0-.27.04-.53.15-.79.1-.26.25-.48.44-.69.19-.2.42-.36.68-.49.26-.12.53-.19.81-.21.28-.02.55.02.82.1.26.09.49.22.7.4.21.18.36.39.48.63Z"/>
  <path class="cls-2" d="M962.13,93.1c.11.24.18.5.18.77,0,.27-.04.54-.14.79-.1.26-.25.49-.45.69-.19.21-.42.37-.68.49-.26.12-.53.19-.81.21-.29.02-.56-.01-.82-.1-.27-.08-.5-.21-.7-.39s-.36-.39-.48-.63c-.11-.24-.17-.5-.18-.77,0-.27.04-.54.15-.79.1-.26.25-.49.44-.69.2-.21.42-.37.68-.49.26-.13.53-.19.81-.21s.55.01.82.1c.26.08.49.21.7.39.2.18.36.39.47.63Z"/>
  <path class="cls-2" d="M968.63,81.47c.11.24.17.49.18.77,0,.27-.04.54-.15.79-.1.26-.25.49-.44.69-.19.21-.42.37-.68.49-.26.13-.53.19-.81.21s-.55-.01-.82-.1c-.26-.08-.49-.21-.7-.39-.21-.18-.36-.39-.48-.63-.11-.24-.18-.5-.18-.77s.04-.53.14-.79c.1-.26.25-.48.45-.69.19-.2.42-.36.68-.49.26-.12.53-.19.81-.21.28-.02.55.01.82.09.26.09.49.22.7.4s.36.39.48.63Z"/>
  <path class="cls-2" d="M975.72,104.19c.11.24.18.49.18.77s-.04.54-.14.79c-.1.26-.25.49-.45.69-.19.2-.42.37-.68.49-.26.12-.53.19-.81.21s-.56-.02-.82-.1c-.27-.08-.5-.22-.7-.4s-.36-.39-.48-.63c-.11-.24-.17-.5-.18-.77-.01-.27.04-.53.14-.79.1-.26.25-.48.44-.69.2-.2.42-.37.68-.49.26-.12.53-.19.81-.21.28-.02.56.02.82.1.27.09.49.22.7.4.2.18.36.39.47.63Z"/>
</svg>